<svg xmlns="http://www.w3.org/2000/svg" width="980" height="240" viewBox="0 0 980 240" role="img" aria-labelledby="title desc">
  <title id="title">Source to skill flow</title>
  <desc id="desc">Sources pass through a readiness gate, then become the smallest useful artifact.</desc>
  <rect width="980" height="240" rx="18" fill="#f7f9f8"/>
  <g font-family="Inter, ui-sans-serif, system-ui, -apple-system, BlinkMacSystemFont, Segoe UI, sans-serif">
    <text x="48" y="48" font-size="18" font-weight="700" fill="#24312f">source-to-skill</text>
    <text x="48" y="76" font-size="14" fill="#63736f">analyze first, generate only when the source is ready</text>

    <g transform="translate(48 100)">
      <rect width="188" height="104" rx="8" fill="#ffffff" stroke="#cbd7d4"/>
      <text x="20" y="30" font-size="15" font-weight="700" fill="#24312f">Sources</text>
      <text x="20" y="55" font-size="12" fill="#63736f">books</text>
      <text x="20" y="73" font-size="12" fill="#63736f">notes</text>
      <text x="20" y="91" font-size="12" fill="#63736f">audio</text>
    </g>

    <path d="M260 152h64" stroke="#9aa9a5" stroke-width="3" stroke-linecap="round"/>
    <path d="M315 143l13 9-13 9" fill="none" stroke="#9aa9a5" stroke-width="3" stroke-linecap="round" stroke-linejoin="round"/>

    <g transform="translate(348 96)">
      <rect width="210" height="112" rx="10" fill="#e7efed" stroke="#2f8f83" stroke-width="2"/>
      <text x="24" y="34" font-size="16" font-weight="700" fill="#24312f">Readiness Gate</text>
      <text x="24" y="60" font-size="13" fill="#4d625d">structure · rules · examples</text>
      <text x="24" y="82" font-size="13" fill="#4d625d">reuse · evidence · noise</text>
    </g>

    <path d="M582 152h92" stroke="#9aa9a5" stroke-width="3" stroke-linecap="round"/>
    <path d="M665 143l13 9-13 9" fill="none" stroke="#9aa9a5" stroke-width="3" stroke-linecap="round" stroke-linejoin="round"/>

    <g transform="translate(702 84)">
      <rect width="210" height="136" rx="10" fill="#24312f"/>
      <text x="24" y="32" font-size="16" font-weight="700" fill="#ffffff">Smallest useful</text>
      <text x="24" y="54" font-size="16" font-weight="700" fill="#ffffff">output</text>
      <text x="24" y="82" font-size="13" fill="#d9f4ee">Note</text>
      <text x="24" y="104" font-size="13" fill="#d9f4ee">Skill Seed</text>
      <text x="24" y="126" font-size="13" fill="#d9f4ee">Mini Skill</text>
      <text x="24" y="148" font-size="13" fill="#d9f4ee">Full Skill</text>
    </g>
  </g>
</svg>
